<?xml version="1.0" standalone="no"?>
<!DOCTYPE svg PUBLIC "-//W3C//DTD SVG 20010904//EN"
 "http://www.w3.org/TR/2001/REC-SVG-20010904/DTD/svg10.dtd">
<svg version="1.0" xmlns="http://www.w3.org/2000/svg"
 width="540.000000pt" height="540.000000pt" viewBox="0 0 540.000000 540.000000"
 preserveAspectRatio="xMidYMid meet">
<metadata>
Created by potrace 1.14, written by Peter Selinger 2001-2017
</metadata>
<g transform="translate(0.000000,540.000000) scale(0.100000,-0.100000)"
fill="#000000" stroke="none">
<path d="M2585 5022 c-1 -1 -36 -5 -76 -7 -75 -5 -97 -8 -179 -20 -25 -4 -54
-8 -65 -10 -31 -5 -182 -44 -260 -67 -38 -12 -72 -22 -75 -23 -5 -2 -42 -16
-95 -38 -16 -6 -32 -12 -35 -12 -24 -3 -334 -166 -350 -184 -3 -3 -32 -24 -65
-46 -51 -33 -182 -134 -221 -170 -62 -56 -134 -129 -134 -136 0 -5 -7 -9 -15
-9 -8 0 -15 -3 -15 -8 0 -4 -17 -26 -38 -48 -20 -23 -48 -56 -62 -74 -14 -18
-43 -56 -65 -85 -22 -29 -47 -63 -55 -75 -8 -12 -22 -32 -31 -44 -9 -11 -22
-36 -30 -53 -8 -18 -17 -33 -20 -33 -8 0 -142 -270 -142 -287 0 -7 -4 -13 -8
-13 -3 0 -9 -10 -12 -22 -3 -13 -17 -54 -31 -93 -14 -38 -26 -72 -26 -75 -1
-3 -8 -28 -16 -56 -8 -28 -16 -60 -18 -70 -2 -11 -9 -37 -14 -59 -6 -22 -13
-58 -17 -80 -3 -23 -7 -50 -9 -60 -13 -69 -18 -111 -21 -181 -2 -43 -5 -81 -5
-84 -5 -15 -4 -200 0 -200 3 0 6 -36 7 -79 1 -43 4 -94 8 -112 3 -19 8 -50 11
-69 3 -19 10 -60 16 -90 6 -30 12 -59 13 -65 2 -17 16 -66 37 -135 11 -36 21
-72 23 -80 7 -32 59 -159 102 -250 24 -52 44 -97 43 -99 -1 -2 2 -7 7 -10 5
-3 14 -17 21 -31 19 -39 43 -79 97 -159 28 -40 55 -81 60 -89 6 -9 15 -22 20
-29 6 -7 15 -18 20 -25 56 -73 277 -308 289 -308 2 0 19 -14 37 -30 48 -46
215 -170 228 -170 6 0 11 -4 11 -8 0 -5 15 -16 32 -26 18 -9 51 -28 73 -41 53
-33 242 -125 255 -125 5 0 10 -5 10 -12 0 -6 3 -9 6 -6 3 3 29 -3 57 -14 45
-17 106 -37 232 -78 17 -5 41 -11 55 -14 14 -3 36 -7 50 -10 193 -42 295 -51
530 -50 120 1 220 8 285 18 55 10 109 18 120 20 36 5 140 27 155 33 8 3 19 5
23 4 4 0 17 4 28 10 11 6 30 13 42 15 38 9 52 12 55 14 1 2 5 3 10 5 4 1 16 5
27 9 44 17 50 19 55 21 3 1 22 9 44 18 21 9 40 17 43 17 7 0 202 98 241 121
60 36 167 103 172 109 3 3 30 23 60 45 106 77 252 211 354 326 55 62 144 181
202 269 67 103 69 106 105 180 18 36 36 67 41 68 4 2 8 8 8 13 0 5 7 26 17 47
9 20 17 39 18 42 2 5 9 22 32 80 18 44 72 208 77 235 3 11 10 43 16 70 6 28
13 59 16 70 2 11 6 31 9 45 3 14 7 41 10 60 2 19 7 60 11 90 8 55 11 455 3
518 -2 17 -6 32 -10 32 -3 0 -4 10 -2 23 3 18 -20 153 -42 242 -3 11 -7 29 -9
40 -24 113 -148 425 -200 500 -12 17 -20 31 -18 33 2 2 -7 19 -45 80 -10 15
-18 29 -18 32 0 9 -151 215 -189 259 -50 58 -264 269 -301 296 -22 17 -46 36
-53 43 -8 6 -35 26 -60 44 -26 17 -49 35 -52 38 -3 4 -19 14 -37 23 -17 9 -37
22 -45 29 -12 12 -61 40 -153 87 -16 9 -31 19 -33 24 -2 4 -11 7 -21 7 -9 0
-21 4 -26 9 -9 8 -177 80 -200 86 -5 1 -19 5 -30 9 -63 24 -247 76 -285 81 -8
1 -42 7 -75 13 -86 16 -129 21 -220 28 -87 7 -295 11 -300 6z"/>
</g>
</svg>
